C:\Users\r0593348\3dpredictsim\Results\Batchsim_tmt_linear\Pog_s1_tmt_bCst_d00_k2000_ig24_pas_GRF.mot
nRows=27
nColumns=19

name C:\Users\r0593348\3dpredictsim\Results\Batchsim_tmt_linear\Pog_s1_tmt_bCst_d00_k2000_ig24_pas_GRF.mot
datacolumns 19
datarows 27
range 0.5520062013 0.8390494260
endheader
time 	ground_force_vx	ground_force_vy	ground_force_vz	ground_force_px	ground_force_py	ground_force_pz	1_ground_force_vx	1_ground_force_vy	1_ground_force_vz	1_ground_force_px	1_ground_force_py	1_ground_force_pz	ground_torque_x	ground_torque_y	ground_torque_z	1_ground_torque_x	1_ground_torque_y	1_ground_torque_z
        0.5520062013	      100.3364977849	      565.3645064663	        1.4318709477	        0.3893182341	        0.0000000000	        0.0381370002	      -64.4203148892	       50.9336348340	      -20.9917018691	        0.8739467464	        0.0000000000	       -0.0394667524	        0.0000000000	        0.0000000000	        0.0000000000	        0.0000000000	        0.0000000000	        0.0000000000	
        0.5630463253	       89.2165842215	      496.0360780290	        4.5457120635	        0.3917996862	        0.0000000000	        0.0376496774	     -107.3789793454	      118.0913299133	      -58.3022176305	        0.8817576164	        0.0000000000	       -0.0371820554	        0.0000000000	        0.0000000000	        0.0000000000	        0.0000000000	        0.0000000000	        0.0000000000	
        0.5740864493	       75.1733312305	      412.9552219553	        5.7524199604	        0.3954750730	        0.0000000000	        0.0366362827	      -37.9742461160	      237.6249019818	      -33.8141721486	        0.8870274948	        0.0000000000	       -0.0347965975	        0.0000000000	        0.0000000000	        0.0000000000	        0.0000000000	        0.0000000000	        0.0000000000	
        0.5851265734	       60.2517900238	      329.9926096667	        3.7178697974	        0.4007674236	        0.0000000000	        0.0348283963	      -29.7802799998	      367.4672554985	       -4.2242773484	        0.8893005235	        0.0000000000	       -0.0340959332	        0.0000000000	        0.0000000000	        0.0000000000	        0.0000000000	        0.0000000000	        0.0000000000	
        0.5961666974	       36.9654663421	      241.0296740154	        4.6081916998	        0.4094496802	        0.0000000000	        0.0314070501	      -47.9727068693	      489.8038862070	        1.1992413416	        0.8926170575	        0.0000000000	       -0.0348040414	        0.0000000000	        0.0000000000	        0.0000000000	        0.0000000000	        0.0000000000	        0.0000000000	
        0.6072068214	       15.4756730646	      158.8402088554	        9.5988670299	        0.4241352510	        0.0000000000	        0.0247908225	      -77.5563503775	      628.9636812542	        5.8463744164	        0.8999749783	        0.0000000000	       -0.0371260453	        0.0000000000	        0.0000000000	        0.0000000000	        0.0000000000	        0.0000000000	        0.0000000000	
        0.6182469454	        3.4270058630	      127.6041157868	       12.4019088426	        0.4285017146	        0.0000000000	        0.0225467445	      -97.1878204261	      734.3140934891	        9.0206649705	        0.9059061405	        0.0000000000	       -0.0389093617	        0.0000000000	        0.0000000000	        0.0000000000	        0.0000000000	        0.0000000000	        0.0000000000	
        0.6292870695	        1.5963025567	       97.4239667159	       13.2478452247	        0.4290831329	        0.0000000000	        0.0226474454	     -101.9038110777	      781.6279581276	       11.0031780434	        0.9102060984	        0.0000000000	       -0.0400809253	        0.0000000000	        0.0000000000	        0.0000000000	        0.0000000000	        0.0000000000	        0.0000000000	
        0.6403271935	       -2.5309121027	       62.1886322280	       11.8387358039	        0.4295582721	        0.0000000000	        0.0226683152	      -98.0687991107	      787.7544096439	       11.2986839049	        0.9134647962	        0.0000000000	       -0.0408530231	        0.0000000000	        0.0000000000	        0.0000000000	        0.0000000000	        0.0000000000	        0.0000000000	
        0.6513673175	       -7.9688855166	       24.8027384440	        5.5042376580	        0.4292025806	        0.0000000000	        0.0222590419	      -91.1281445116	      777.8433104387	       11.6996623877	        0.9162991606	        0.0000000000	       -0.0413401881	        0.0000000000	        0.0000000000	        0.0000000000	        0.0000000000	        0.0000000000	        0.0000000000	
        0.6624074415	        0.0753979872	       -0.0735789148	       -0.0015437611	        0.0000000000	        0.0000000000	        0.0000000000	      -82.1808987821	      766.5418014331	       12.7142437340	        0.9193318181	        0.0000000000	       -0.0416157119	        0.0000000000	        0.0000000000	        0.0000000000	        0.0000000000	        0.0000000000	        0.0000000000	
        0.6734475656	        0.0001439534	       -0.0001147808	        0.0000076519	        0.0000000000	        0.0000000000	        0.0000000000	      -71.1319686001	      747.6124551649	       13.7636699315	        0.9225185084	        0.0000000000	       -0.0417823057	        0.0000000000	        0.0000000000	        0.0000000000	        0.0000000000	        0.0000000000	        0.0000000000	
        0.6844876896	        0.0000540739	       -0.0000373285	        0.0000038279	        0.0000000000	        0.0000000000	        0.0000000000	      -61.1609658037	      724.0169290861	       14.3123187285	        0.9262539709	        0.0000000000	       -0.0418731346	        0.0000000000	        0.0000000000	        0.0000000000	        0.0000000000	        0.0000000000	        0.0000000000	
        0.6955278136	        0.0006193925	       -0.0003825871	        0.0000487247	        0.0000000000	        0.0000000000	        0.0000000000	      -52.8601047288	      701.6903315420	       14.7783461883	        0.9308037136	        0.0000000000	       -0.0418428210	        0.0000000000	        0.0000000000	        0.0000000000	        0.0000000000	        0.0000000000	        0.0000000000	
        0.7065679376	        0.0016653293	       -0.0009404588	        0.0001389824	        0.0000000000	        0.0000000000	        0.0000000000	      -44.8398251362	      678.1479215918	       15.5433040024	        0.9355571103	        0.0000000000	       -0.0418076226	        0.0000000000	        0.0000000000	        0.0000000000	        0.0000000000	        0.0000000000	        0.0000000000	
        0.7176080617	       -0.0285614188	        0.0149772419	       -0.0024775213	        0.0000000000	        0.0000000000	        0.0000000000	      -37.2659357384	      654.4208880604	       16.1487353016	        0.9401986390	        0.0000000000	       -0.0418268010	        0.0000000000	        0.0000000000	        0.0000000000	        0.0000000000	        0.0000000000	        0.0000000000	
        0.7286481857	       -0.0196904831	        0.0097008771	       -0.0017557665	        0.0000000000	        0.0000000000	        0.0000000000	      -30.6569462805	      632.8812276214	       16.5364046412	        0.9447324851	        0.0000000000	       -0.0418963764	        0.0000000000	        0.0000000000	        0.0000000000	        0.0000000000	        0.0000000000	        0.0000000000	
        0.7396883097	       -0.0148668536	        0.0069477404	       -0.0013483394	        0.0000000000	        0.0000000000	        0.0000000000	      -24.8703061656	      614.6686720262	       17.0103726691	        0.9492344297	        0.0000000000	       -0.0419927273	        0.0000000000	        0.0000000000	        0.0000000000	        0.0000000000	        0.0000000000	        0.0000000000	
        0.7507284338	       -0.0148795427	        0.0066472603	       -0.0013610002	        0.0000000000	        0.0000000000	        0.0000000000	      -19.9400660385	      600.5837311282	       17.3469707615	        0.9539662701	        0.0000000000	       -0.0420928386	        0.0000000000	        0.0000000000	        0.0000000000	        0.0000000000	        0.0000000000	        0.0000000000	
        0.7617685578	       -0.0199370511	        0.0085664463	       -0.0018243100	        0.0000000000	        0.0000000000	        0.0000000000	      -16.4184764708	      590.9507313300	       17.4542317386	        0.9590169750	        0.0000000000	       -0.0421721233	        0.0000000000	        0.0000000000	        0.0000000000	        0.0000000000	        0.0000000000	        0.0000000000	
        0.7728086818	       -0.0338532268	        0.0140597222	       -0.0030768048	        0.0000000000	        0.0000000000	        0.0000000000	      -14.1305922567	      585.0128698584	       17.4624544153	        0.9642372543	        0.0000000000	       -0.0422164625	        0.0000000000	        0.0000000000	        0.0000000000	        0.0000000000	        0.0000000000	        0.0000000000	
        0.7838488058	       -0.0671000284	        0.0270581964	       -0.0060334866	        0.0000000000	        0.0000000000	        0.0000000000	      -12.7201368870	      582.3783926036	       17.5063486523	        0.9697078788	        0.0000000000	       -0.0422185675	        0.0000000000	        0.0000000000	        0.0000000000	        0.0000000000	        0.0000000000	        0.0000000000	
        0.7948889299	       -0.1419940805	        0.0558254126	       -0.0125964145	        0.0000000000	        0.0000000000	        0.0000000000	      -11.9515770668	      581.6141036874	       17.6317887859	        0.9753192992	        0.0000000000	       -0.0421818804	        0.0000000000	        0.0000000000	        0.0000000000	        0.0000000000	        0.0000000000	        0.0000000000	
        0.8059290539	       -0.2957335589	        0.1138004294	       -0.0258542409	        0.0000000000	        0.0000000000	        0.0000000000	      -10.9572658937	      581.5934539826	       17.8772801475	        0.9810406072	        0.0000000000	       -0.0421108284	        0.0000000000	        0.0000000000	        0.0000000000	        0.0000000000	        0.0000000000	        0.0000000000	
        0.8169691779	       -0.5644696446	        0.2134278531	       -0.0485457683	        0.0000000000	        0.0000000000	        0.0000000000	       -9.7056403332	      581.1811592259	       17.9849691761	        0.9867883502	        0.0000000000	       -0.0420171910	        0.0000000000	        0.0000000000	        0.0000000000	        0.0000000000	        0.0000000000	        0.0000000000	
        0.8280093019	       -0.9431413805	        0.3516367609	       -0.0795989829	        0.0000000000	        0.0000000000	        0.0000000000	       -8.1888022031	      579.7112458300	       17.8481516122	        0.9924873551	        0.0000000000	       -0.0419112733	        0.0000000000	        0.0000000000	        0.0000000000	        0.0000000000	        0.0000000000	        0.0000000000	
        0.8390494260	       -1.3583761022	        0.5008751867	       -0.1118870839	        0.0000000000	        0.0000000000	        0.0000000000	       -6.1591638842	      576.4077953926	       17.6372760604	        0.9980730045	        0.0000000000	       -0.0418011568	        0.0000000000	        0.0000000000	        0.0000000000	        0.0000000000	        0.0000000000	        0.0000000000	
